<?xml version="1.0" encoding="UTF-8"?>
<svg version="1.1" xmlns="http://www.w3.org/2000/svg" width="512" height="512">
<path d="M0 0 C5.38697265 3.15927719 8.64594858 7.10972074 10.640625 13.09375 C10.72673014 14.52093637 10.75834328 15.95181648 10.75415039 17.3815918 C10.75402954 18.25424683 10.75390869 19.12690186 10.75378418 20.02600098 C10.74866821 20.93910034 10.74355225 21.85219971 10.73828125 22.79296875 C10.73727417 23.63525024 10.73626709 24.47753174 10.73522949 25.34533691 C10.72999884 28.49065513 10.71603757 31.63595394 10.703125 34.78125 C10.6825 41.814375 10.661875 48.8475 10.640625 56.09375 C24.830625 56.09375 39.020625 56.09375 53.640625 56.09375 C53.52227527 42.960748 53.52227527 42.960748 53.37036133 29.828125 C53.36158939 28.16667259 53.35394713 26.50521366 53.34765625 24.84375 C53.3246344 23.57724609 53.3246344 23.57724609 53.30114746 22.28515625 C53.29829721 15.74857715 54.19563578 9.96759822 58.578125 4.81640625 C59.25875 4.26855469 59.939375 3.72070312 60.640625 3.15625 C61.32125 2.59035156 62.001875 2.02445313 62.703125 1.44140625 C67.44838358 -1.85922724 73.10050704 -1.45715809 78.640625 -0.90625 C84.04560541 0.8518756 87.40417404 4.6198325 90.640625 9.09375 C91.57574934 11.89912303 91.76245407 13.57540364 91.75415039 16.47338867 C91.75402954 17.36634644 91.75390869 18.2593042 91.75378418 19.17932129 C91.74866821 20.11401245 91.74355225 21.04870361 91.73828125 22.01171875 C91.73727417 22.87365845 91.73626709 23.73559814 91.73522949 24.62365723 C91.72999822 27.84286835 91.71603695 31.06206052 91.703125 34.28125 C91.6825 41.479375 91.661875 48.6775 91.640625 56.09375 C106.160625 56.09375 120.680625 56.09375 135.640625 56.09375 C135.59421875 52.91492188 135.5478125 49.73609375 135.5 46.4609375 C135.46878111 43.37306311 135.44450655 40.28520648 135.42089844 37.19726562 C135.40081612 35.05558366 135.37354463 32.9139563 135.33886719 30.77246094 C135.29020102 27.68931585 135.2676221 24.60689738 135.25 21.5234375 C135.21903229 20.09340897 135.21903229 20.09340897 135.18743896 18.63449097 C135.18513928 11.78028917 136.4154269 8.41357494 141.23828125 3.44921875 C146.90174084 -1.06644636 151.57407146 -1.66001571 158.640625 -0.90625 C164.86345984 1.044349 168.63614387 4.36196499 171.72998047 10.12182617 C173.06691583 14.4849667 172.8859368 18.67024106 172.8359375 23.20703125 C172.83169266 24.66135811 172.83169266 24.66135811 172.82736206 26.14506531 C172.81619491 29.23225405 172.79109652 32.31914939 172.765625 35.40625 C172.75559073 37.50325101 172.74646566 39.60025658 172.73828125 41.69726562 C172.71626688 46.8295396 172.68176071 51.9615951 172.640625 57.09375 C173.66309326 57.07280273 174.68556152 57.05185547 175.73901367 57.03027344 C179.59498645 56.95693149 183.45090001 56.91161456 187.30737305 56.87402344 C188.96470566 56.85411939 190.62197006 56.82698586 192.27905273 56.79199219 C211.14864791 56.40398721 227.44505835 60.96806981 241.640625 74.09375 C257.21158907 90.55203004 259.86851909 109.56373362 259.703125 131.28125 C259.69861328 132.42400391 259.69410156 133.56675781 259.68945312 134.74414062 C259.67780768 137.5274011 259.66145497 140.31054572 259.640625 143.09375 C260.87103516 143.07280273 262.10144531 143.05185547 263.36914062 143.03027344 C267.9611433 142.95753401 272.55309565 142.91182729 277.14550781 142.87402344 C279.12801699 142.85398503 281.11046763 142.82674647 283.09277344 142.79199219 C285.95262141 142.74313046 288.81168381 142.72070327 291.671875 142.703125 C292.54928345 142.68247986 293.42669189 142.66183472 294.33068848 142.64056396 C300.86463276 142.63821464 306.21830557 144.00780772 311.16760254 148.47064209 C314.71397749 152.41186156 316.60233482 156.16455121 316.671875 161.484375 C316.25314323 168.47719549 314.36152416 172.63830442 309.078125 177.40625 C305.7344786 179.72108213 303.22707129 180.21863953 299.26098633 180.20727539 C297.92154968 180.20709412 297.92154968 180.20709412 296.55505371 180.20690918 C295.62036255 180.20179321 294.68567139 180.19667725 293.72265625 180.19140625 C292.86071655 180.19039917 291.99877686 180.18939209 291.11071777 180.18835449 C287.89150665 180.18312322 284.67231448 180.16916195 281.453125 180.15625 C274.255 180.135625 267.056875 180.115 259.640625 180.09375 C259.640625 194.61375 259.640625 209.13375 259.640625 224.09375 C273.43196087 223.93591437 273.43196087 223.93591437 287.22265625 223.73339844 C288.96613581 223.7217036 290.70962639 223.71151366 292.453125 223.703125 C293.34064453 223.68266113 294.22816406 223.66219727 295.14257812 223.64111328 C302.36593196 223.6371092 307.77614049 225.30464666 313.015625 230.40625 C316.7263458 236.54321132 317.30274328 242.23902864 315.640625 249.09375 C313.63801081 254.37525583 310.57022494 257.36673727 305.640625 260.09375 C302.81050373 261.03712376 301.09762582 261.21547829 298.16918945 261.20727539 C296.81812859 261.20716209 296.81812859 261.20716209 295.43977356 261.20704651 C294.47093735 261.20188522 293.50210114 261.19672394 292.50390625 261.19140625 C291.01204048 261.18928383 291.01204048 261.18928383 289.49003601 261.18711853 C286.31103518 261.18151761 283.13210457 261.16896496 279.953125 261.15625 C277.79882914 261.15123512 275.64453218 261.14667219 273.49023438 261.14257812 C268.20698237 261.13239845 262.92388238 261.11282313 257.640625 261.09375 C257.640625 275.28375 257.640625 289.47375 257.640625 304.09375 C271.47686337 303.97530984 271.47686337 303.97530984 285.31274414 303.82348633 C287.05875089 303.81471719 288.80476382 303.80707426 290.55078125 303.80078125 C291.8897345 303.7777594 291.8897345 303.7777594 293.2557373 303.75427246 C299.5741112 303.75164601 304.55920895 304.51236089 309.56640625 308.70703125 C313.6958799 313.76709051 315.957866 317.82959791 315.515625 324.53125 C314.72456134 329.81982168 313.14054331 333.93531172 309.02612305 337.48771667 C303.34913332 341.36161495 298.77633641 341.76704111 292.015625 341.58203125 C291.02812256 341.57495651 290.04062012 341.56788177 289.02319336 341.56059265 C285.8948727 341.53278956 282.76839702 341.47007717 279.640625 341.40625 C277.50914058 341.38114895 275.37762788 341.35833896 273.24609375 341.33789062 C268.04365019 341.2830098 262.84226945 341.19952713 257.640625 341.09375 C257.6720459 342.61959717 257.6720459 342.61959717 257.70410156 344.17626953 C257.77754505 348.01922021 257.82279582 351.86211164 257.86035156 355.70556641 C257.88023321 357.35606379 257.90734856 359.006493 257.94238281 360.65673828 C258.34885218 380.3226825 253.93354196 396.15281484 240.01953125 410.84375 C224.92347211 425.12179608 206.86925236 428.64143303 186.828125 428.28125 C185.34571693 428.26615486 183.86329376 428.25247511 182.38085938 428.24023438 C178.80045956 428.2076595 175.22064415 428.15615312 171.640625 428.09375 C171.65633545 429.32939697 171.6720459 430.56504395 171.68823242 431.83813477 C171.74272651 436.44321112 171.77704582 441.04825921 171.80541992 445.65356445 C171.82046224 447.6428711 171.84090123 449.63214483 171.86694336 451.62133789 C171.90352746 454.48852689 171.92039718 457.35527559 171.93359375 460.22265625 C171.94907761 461.10522598 171.96456146 461.98779572 171.98051453 462.89710999 C171.98234379 469.68112956 170.56427152 474.0708769 166.890625 479.84375 C162.61816108 484.11621392 158.45021081 485.2656553 152.578125 485.46875 C146.73346372 485.26507241 143.26855406 483.53668712 138.890625 479.65625 C135.6626884 475.97998887 134.38603794 473.41024655 134.41357422 468.50878906 C134.41372528 467.60815735 134.41387634 466.70752563 134.41403198 465.77960205 C134.42951584 464.33408966 134.42951584 464.33408966 134.4453125 462.859375 C134.4481424 461.86621277 134.45097229 460.87305054 134.45388794 459.84979248 C134.46507357 456.68098856 134.49017538 453.51246835 134.515625 450.34375 C134.52565688 448.1940145 134.53478237 446.04427457 134.54296875 443.89453125 C134.56330514 438.6274072 134.60245728 433.3608958 134.640625 428.09375 C120.120625 428.09375 105.600625 428.09375 90.640625 428.09375 C90.79856092 442.25922137 90.79856092 442.25922137 91.00097656 456.42407227 C91.0126683 458.21109051 91.02285897 459.99811946 91.03125 461.78515625 C91.05171387 462.69938354 91.07217773 463.61361084 91.09326172 464.55554199 C91.09696102 471.38536945 89.76354022 475.68832167 85.04296875 480.8359375 C79.08698611 485.44189741 73.99136124 485.82470556 66.640625 485.09375 C61.23564459 483.3356244 57.87707596 479.5676675 54.640625 475.09375 C53.70550066 472.28837697 53.51879593 470.61209636 53.52709961 467.71411133 C53.52722046 466.82115356 53.52734131 465.9281958 53.52746582 465.00817871 C53.53258179 464.07348755 53.53769775 463.13879639 53.54296875 462.17578125 C53.54397583 461.31384155 53.54498291 460.45190186 53.54602051 459.56384277 C53.55125178 456.34463165 53.56521305 453.12543948 53.578125 449.90625 C53.59875 442.708125 53.619375 435.51 53.640625 428.09375 C39.120625 428.09375 24.600625 428.09375 9.640625 428.09375 C9.68703125 431.27257812 9.7334375 434.45140625 9.78125 437.7265625 C9.81246889 440.81443689 9.83674345 443.90229352 9.86035156 446.99023438 C9.88043388 449.13191634 9.90770537 451.2735437 9.94238281 453.41503906 C9.99104898 456.49818415 10.0136279 459.58060262 10.03125 462.6640625 C10.05189514 463.61741486 10.07254028 464.57076721 10.09381104 465.55300903 C10.09611072 472.40721083 8.8658231 475.77392506 4.04296875 480.73828125 C-1.62049084 485.25394636 -6.29282146 485.84751571 -13.359375 485.09375 C-19.58290757 483.1429323 -23.36937705 479.82354669 -26.44873047 474.05200195 C-27.77037582 469.75860336 -27.60508215 465.66509443 -27.5546875 461.19921875 C-27.5518576 460.25186356 -27.54902771 459.30450836 -27.54611206 458.32844543 C-27.53494687 455.31258334 -27.50984889 452.29702184 -27.484375 449.28125 C-27.47434047 447.23242617 -27.46521545 445.18359768 -27.45703125 443.13476562 C-27.43501949 438.12097852 -27.40051471 433.10741517 -27.359375 428.09375 C-28.24496094 428.11469727 -29.13054687 428.13564453 -30.04296875 428.15722656 C-63.22084552 428.83908199 -63.22084552 428.83908199 -75.359375 424.09375 C-76.41125 423.69285156 -77.463125 423.29195313 -78.546875 422.87890625 C-92.56269781 416.71122912 -103.17806709 404.83405797 -109.171875 390.90625 C-114.06964054 378.26840909 -114.52510553 366.29548197 -114.421875 352.84375 C-114.41736328 351.70550781 -114.41285156 350.56726563 -114.40820312 349.39453125 C-114.39657714 346.62754591 -114.38023931 343.86067842 -114.359375 341.09375 C-115.65560791 341.11469727 -116.95184082 341.13564453 -118.28735352 341.15722656 C-123.11601632 341.22985891 -127.94463121 341.27563431 -132.77368164 341.31347656 C-134.86002739 341.33353913 -136.94631727 341.3607959 -139.0324707 341.39550781 C-142.03871478 341.44426159 -145.04421269 341.46677267 -148.05078125 341.484375 C-148.97709854 341.50502014 -149.90341583 341.52566528 -150.85780334 341.54693604 C-156.91213694 341.54901372 -160.39441551 340.60869406 -165.359375 337.09375 C-169.20061579 333.14869189 -171.31120453 329.32652346 -171.39453125 323.734375 C-171.02815783 317.83665649 -169.88264943 313.85493167 -166.359375 309.09375 C-161.64752055 305.36353189 -157.96974078 303.96239348 -152.04980469 303.98022461 C-151.19757324 303.98034546 -150.3453418 303.98046631 -149.46728516 303.98059082 C-148.58089355 303.98570679 -147.69450195 303.99082275 -146.78125 303.99609375 C-145.54882568 303.99760437 -145.54882568 303.99760437 -144.29150391 303.99914551 C-141.23078001 304.00436618 -138.17007606 304.01832745 -135.109375 304.03125 C-124.838125 304.0621875 -124.838125 304.0621875 -114.359375 304.09375 C-114.359375 289.90375 -114.359375 275.71375 -114.359375 261.09375 C-127.492377 261.21209973 -127.492377 261.21209973 -140.625 261.36401367 C-142.28645241 261.37278561 -143.94791134 261.38042787 -145.609375 261.38671875 C-146.45371094 261.40206665 -147.29804688 261.41741455 -148.16796875 261.43322754 C-154.52087781 261.4359977 -160.2504656 260.57247506 -165.3828125 256.48046875 C-169.6204395 251.1528163 -171.63954079 247.04390163 -171.234375 240.09375 C-170.48264652 234.27222476 -168.23117465 230.86703387 -163.984375 226.84375 C-158.12588107 222.93808738 -152.60434314 222.81702369 -145.8046875 222.8984375 C-145.00474365 222.90045166 -144.2047998 222.90246582 -143.38061523 222.90454102 C-140.41514283 222.91494224 -137.44975267 222.94286451 -134.484375 222.96875 C-127.843125 223.01 -121.201875 223.05125 -114.359375 223.09375 C-114.359375 208.90375 -114.359375 194.71375 -114.359375 180.09375 C-127.86651629 180.21217945 -127.86651629 180.21217945 -141.37329102 180.36401367 C-143.07828201 180.37278315 -144.78327932 180.38042599 -146.48828125 180.38671875 C-147.35932495 180.40206665 -148.23036865 180.41741455 -149.12780762 180.43322754 C-155.97277944 180.43614071 -160.63353196 179.26203423 -166.109375 174.90625 C-170.12575626 169.88577342 -171.69507362 165.42733743 -171.296875 158.96875 C-170.46831885 153.15994773 -168.1396739 149.7003612 -163.796875 145.78125 C-160.4200841 143.44347168 -157.89240324 142.96900762 -153.88793945 142.98022461 C-152.53687859 142.98033791 -152.53687859 142.98033791 -151.15852356 142.98045349 C-150.18968735 142.98561478 -149.22085114 142.99077606 -148.22265625 142.99609375 C-146.73079048 142.99821617 -146.73079048 142.99821617 -145.20878601 143.00038147 C-142.02978518 143.00598239 -138.85085457 143.01853504 -135.671875 143.03125 C-133.51757914 143.03626488 -131.36328218 143.04082781 -129.20898438 143.04492188 C-123.92575726 143.05595212 -118.64257115 143.07269114 -113.359375 143.09375 C-113.38032227 142.17787109 -113.40126953 141.26199219 -113.42285156 140.31835938 C-113.49206533 136.83664385 -113.54166714 133.3556853 -113.57910156 129.87353516 C-113.59890505 128.38220502 -113.62595566 126.89094906 -113.66113281 125.39990234 C-114.09431691 106.53091263 -110.03810763 90.313603 -97.68359375 75.51171875 C-85.82058881 63.17020605 -70.16792956 56.15706054 -53.05784607 55.81085205 C-49.38628422 55.79394315 -45.71779171 55.84242542 -42.046875 55.90625 C-40.5162894 55.92134325 -38.98568919 55.93502335 -37.45507812 55.94726562 C-33.7561997 55.9798597 -30.05788555 56.03137782 -26.359375 56.09375 C-26.36825745 55.54331024 -26.37713989 54.99287048 -26.3862915 54.42575073 C-26.47496791 48.68302828 -26.53519303 42.94050117 -26.57910156 37.19726562 C-26.59918388 35.05558366 -26.62645537 32.9139563 -26.66113281 30.77246094 C-26.70979898 27.68931585 -26.7323779 24.60689738 -26.75 21.5234375 C-26.78096771 20.09340897 -26.78096771 20.09340897 -26.81256104 18.63449097 C-26.81486072 11.78028917 -25.5845731 8.41357494 -20.76171875 3.44921875 C-14.70982758 -1.37615581 -7.43233884 -2.85480565 0 0 Z M-40.19921875 132.05859375 C-40.56144531 132.70957031 -40.92367187 133.36054688 -41.296875 134.03125 C-41.67714844 134.67964844 -42.05742187 135.32804688 -42.44921875 135.99609375 C-44.5789354 140.90449651 -44.50587368 145.92156988 -44.49981689 151.18927002 C-44.50278802 151.99981897 -44.50575914 152.81036792 -44.5088203 153.64547896 C-44.51748557 156.35904075 -44.5190137 159.0725583 -44.52050781 161.78613281 C-44.52513751 163.73283482 -44.53016238 165.67953592 -44.53555298 167.62623596 C-44.54866412 172.91356529 -44.55511941 178.20088194 -44.55956364 183.48822498 C-44.56249637 186.79278801 -44.56660156 190.09734759 -44.57106781 193.40190887 C-44.58473922 203.74478395 -44.59440768 214.08765112 -44.5982697 224.4305346 C-44.60275002 236.36313134 -44.62029827 248.2956135 -44.6492703 260.2281754 C-44.67089718 269.45636836 -44.68097452 278.68452911 -44.68231082 287.91274714 C-44.6833581 293.4222153 -44.68924968 298.93157571 -44.70713043 304.44101715 C-44.7236285 309.62518882 -44.72575813 314.80917193 -44.71699142 319.99336052 C-44.71622199 321.89240716 -44.72055139 323.791464 -44.73044968 325.690485 C-44.743204 328.29064454 -44.73727366 330.89013969 -44.72686768 333.49029541 C-44.73492408 334.23496795 -44.74298048 334.97964049 -44.75128102 335.74687886 C-44.68872021 342.46859093 -43.31042451 348.66812088 -39.046875 353.96875 C-33.48590872 358.3657931 -28.86637958 359.53542662 -21.87112427 359.48143005 C-20.61008355 359.48950836 -20.61008355 359.48950836 -19.32356727 359.49774987 C-16.51390132 359.51202741 -13.70470664 359.50492621 -10.89501953 359.49780273 C-8.87757997 359.50350644 -6.86014364 359.5104707 -4.8427124 359.51860046 C0.63254796 359.53654784 6.10764819 359.53536037 11.58292913 359.52965808 C16.15549185 359.52656822 20.72802372 359.5326565 25.30058205 359.53869683 C36.08924875 359.55274592 46.87783628 359.55117782 57.66650391 359.53979492 C68.79213811 359.5283158 79.91753119 359.54238515 91.04313362 359.5691914 C100.59915644 359.5913528 110.1551036 359.59798469 119.71115029 359.59211498 C125.41676425 359.58874498 131.12222368 359.5911634 136.82781601 359.60836601 C142.1942765 359.62383974 147.56038007 359.61987459 152.92682648 359.60106087 C154.89401557 359.59737607 156.86123114 359.60048026 158.82839584 359.61094666 C161.5188096 359.62416587 164.20804343 359.61260097 166.89840698 359.59495544 C168.05961683 359.60936295 168.05961683 359.60936295 169.24428546 359.62406152 C175.90691938 359.53446392 181.15703052 357.44662898 186.015625 352.84375 C189.56156045 346.84293616 189.93580613 340.43396761 189.90132141 333.63746643 C189.90514696 332.8243542 189.90897251 332.01124198 189.91291398 331.17348999 C189.92317124 328.46918981 189.91926577 325.76510484 189.9152832 323.06079102 C189.91963368 321.11364548 189.92481794 319.16650165 189.93077087 317.21936035 C189.94413524 311.94458526 189.94474245 306.66988192 189.94220757 301.3950932 C189.94113624 296.98656196 189.94602534 292.57804513 189.950813 288.16951698 C189.96189908 277.76721579 189.96235048 267.36495072 189.95629883 256.96264648 C189.95025748 246.24147273 189.96257624 235.52043017 189.9838689 224.7992788 C190.0014964 215.58375799 190.00748448 206.36827889 190.00423115 197.15274185 C190.00242017 191.65338728 190.00503619 186.15412632 190.01894569 180.65478706 C190.03153825 175.48287537 190.02956633 170.31116796 190.01653481 165.13925934 C190.01417269 163.24505227 190.01689059 161.35083075 190.02515793 159.45664024 C190.03565802 156.86319747 190.02749888 154.27043611 190.0148468 151.67701721 C190.02222109 150.93439103 190.02959537 150.19176485 190.03719312 149.42663485 C189.96866931 142.71186882 188.58699082 136.51355616 184.328125 131.21875 C178.76715872 126.8217069 174.14762958 125.65207338 167.15237427 125.70606995 C165.89133355 125.69799164 165.89133355 125.69799164 164.60481727 125.68975013 C161.79515132 125.67547259 158.98595664 125.68257379 156.17626953 125.68969727 C154.15882997 125.68399356 152.14139364 125.6770293 150.1239624 125.66889954 C144.64870204 125.65095216 139.17360181 125.65213963 133.69832087 125.65784192 C129.12575815 125.66093178 124.55322628 125.6548435 119.98066795 125.64880317 C109.19200125 125.63475408 98.40341372 125.63632218 87.61474609 125.64770508 C76.48911189 125.6591842 65.36371881 125.64511485 54.23811638 125.6183086 C44.68209356 125.5961472 35.1261464 125.58951531 25.57009971 125.59538502 C19.86448575 125.59875502 14.15902632 125.5963366 8.45343399 125.57913399 C3.0869735 125.56366026 -2.27913007 125.56762541 -7.64557648 125.58643913 C-9.61276557 125.59012393 -11.57998114 125.58701974 -13.54714584 125.57655334 C-16.2375596 125.56333413 -18.92679343 125.57489903 -21.61715698 125.59254456 C-22.39129688 125.58293955 -23.16543678 125.57333454 -23.96303546 125.56343848 C-30.22324384 125.64762436 -35.82989306 127.39241366 -40.19921875 132.05859375 Z " fill="#4DA5FF" transform="translate(183.359375,13.90625)"/>
<path d="M0 0 C44.55 0 89.1 0 135 0 C135 44.55 135 89.1 135 135 C90.45 135 45.9 135 0 135 C0 90.45 0 45.9 0 0 Z " fill="#4DA5FF" transform="translate(189,189)"/>
</svg>
